<svg width="24" height="16" viewBox="0 0 24 16" fill="none" xmlns="http://www.w3.org/2000/svg">
<path d="M17.9765 9.69355C17.7881 8.67965 17.3986 7.7173 16.8361 6.86699C16.0228 5.63746 14.8453 4.64324 13.3898 4.07184C12.8386 3.85527 12.2986 3.70105 11.775 3.6059C9.97358 3.27824 8.22561 3.58199 6.76639 4.39246C5.30905 5.20152 4.1292 6.52059 3.4603 8.22402C3.25827 8.73824 3.10311 9.27637 3.00186 9.83418C2.91608 10.3053 2.87577 10.7782 2.88045 11.2465C2.88514 11.7106 2.93483 12.1756 3.02858 12.634L0.205297 13.2101C0.0759222 12.5768 0.00701599 11.9267 0.000453485 11.269C-0.00564026 10.6231 0.0496722 9.97199 0.16686 9.32606C0.306547 8.55777 0.511391 7.83871 0.772485 7.17356C1.69405 4.82746 3.33373 3.00215 5.36623 1.87387C7.39592 0.747461 9.80998 0.321367 12.2831 0.770899C13.0115 0.903555 13.7339 1.10699 14.4398 1.38402C16.47 2.18137 18.1106 3.56465 19.2417 5.27465C20.0494 6.49574 20.5978 7.88512 20.842 9.34762L21.345 8.73027C21.8653 8.08996 22.8075 7.99293 23.4483 8.51371C24.0886 9.03449 24.1856 9.97621 23.6648 10.617L21.098 13.7721C20.6156 14.4453 19.679 14.6 19.0059 14.1181L15.5086 11.614C14.8355 11.1321 14.6808 10.1951 15.1626 9.52199C15.645 8.84934 16.5815 8.69465 17.2547 9.17652L17.9765 9.69355ZM9.86577 9.64152C11.4572 9.64152 12.7476 10.932 12.7476 12.5234C12.7476 14.1148 11.4572 15.4053 9.86577 15.4053C8.27436 15.4053 6.98389 14.1148 6.98389 12.5234C6.98389 10.932 8.27436 9.64152 9.86577 9.64152Z" fill="black"/>
</svg>
