<svg width="24" height="16" viewBox="0 0 24 16" fill="none" xmlns="http://www.w3.org/2000/svg">
<path d="M6.02333 9.69355C6.21177 8.67965 6.6013 7.7173 7.1638 6.86699C7.97708 5.63746 9.15458 4.64324 10.6101 4.07184C11.1613 3.85527 11.7013 3.70105 12.2249 3.6059C14.0263 3.27824 15.7743 3.58199 17.2335 4.39246C18.6908 5.20152 19.8707 6.52059 20.5396 8.22402C20.7416 8.73824 20.8968 9.27637 20.998 9.83418C21.0838 10.3053 21.1241 10.7782 21.1194 11.2465C21.1147 11.7106 21.065 12.1756 20.9713 12.634L23.7946 13.2101C23.924 12.5768 23.9929 11.9267 23.9994 11.269C24.0055 10.6231 23.9502 9.97199 23.833 9.32606C23.6933 8.55777 23.4885 7.83871 23.2274 7.17356C22.3058 4.82746 20.6661 3.00215 18.6336 1.87387C16.604 0.747461 14.1899 0.321367 11.7168 0.770899C10.9883 0.903555 10.266 1.10699 9.56005 1.38402C7.52989 2.18137 5.88927 3.56465 4.75818 5.27465C3.95052 6.49574 3.40208 7.88512 3.15786 9.34762L2.65489 8.73027C2.13458 8.08996 1.19239 7.99293 0.551612 8.51371C-0.0887006 9.03449 -0.185732 9.97621 0.33505 10.617L2.90193 13.7721C3.38427 14.4453 4.32083 14.6 4.99396 14.1181L8.4913 11.614C9.16442 11.1321 9.31911 10.1951 8.83724 9.52199C8.35489 8.84934 7.41833 8.69465 6.74521 9.17652L6.02333 9.69355ZM14.1341 9.64152C12.5427 9.64152 11.2522 10.932 11.2522 12.5234C11.2522 14.1148 12.5427 15.4053 14.1341 15.4053C15.7255 15.4053 17.016 14.1148 17.016 12.5234C17.016 10.932 15.7255 9.64152 14.1341 9.64152Z" fill="black"/>
</svg>
